<?xml version="1.0" encoding="UTF-8"?>
<svg version="1.1" xmlns="http://www.w3.org/2000/svg" width="818" height="747">
<path d="M0 0 C1.25039063 0.17692383 2.50078125 0.35384766 3.7890625 0.53613281 C65.43887727 9.47782689 129.37898062 30.3528821 175.625 73.77734375 C177.69963814 75.71890477 179.82171445 77.55244253 182 79.375 C217.51579958 110.48741792 237.98965267 158.85607862 241.82128906 205.22216797 C244.56810493 247.91789327 234.56430515 289.69394962 216 328 C215.22262574 329.64581892 214.44528237 331.29165244 213.66796875 332.9375 C194.55829995 372.80583595 165.7718457 407.23401408 134.75 438.375 C133.91017578 439.21949707 133.07035156 440.06399414 132.20507812 440.93408203 C127.29700871 445.82954178 122.26968754 450.49813718 117 455 C115.91692072 455.94932647 114.83484053 456.89979437 113.75390625 457.8515625 C105.51983759 465.03379198 97.00077738 471.76459665 88.25488281 478.31152344 C86.73870241 479.44685298 85.22506577 480.58558678 83.71386719 481.72753906 C57.1535908 501.79057365 28.71925693 519.09214304 -1.25 533.5625 C-2.03603607 533.9434079 -2.82207214 534.3243158 -3.63192749 534.71676636 C-28.89023384 546.94060881 -54.4248616 558.90275598 -81 568 C-82.07024414 568.36641602 -83.14048828 568.73283203 -84.24316406 569.11035156 C-168.03401877 597.47516121 -258.42837766 608.6793617 -452.8046875 562.19140625 C-495.83440044 540.6999727 -532.21950055 508.60762283 -555 466 C-555.50805176 465.05205566 -555.50805176 465.05205566 -556.02636719 464.08496094 C-565.12955552 446.74419569 -570.79736238 427.26382167 -574 408 C-574.22429688 406.70191406 -574.44859375 405.40382813 -574.6796875 404.06640625 C-580.56405959 363.39975254 -569.90470373 325.29012725 -552 289 C-551.3496458 287.64743077 -550.69989295 286.29457221 -550.05078125 284.94140625 C-533.72640301 251.28922088 -512.96270822 220.66127846 -489 192 C-488.56494141 191.47857422 -488.12988281 190.95714844 -487.68164062 190.41992188 C-476.74480212 177.35433342 -465.08030051 165.01082219 -453.0625 152.9375 C-452.37712158 152.24744873 -451.69174316 151.55739746 -450.9855957 150.84643555 C-447.05570749 146.92893995 -443.01666867 143.1987995 -438.81518555 139.57446289 C-436.44904562 137.52211099 -434.16564604 135.38597219 -431.875 133.25 C-426.6671532 128.50124713 -421.22300397 124.14766808 -415.6484375 119.83984375 C-413.22936232 117.96903201 -410.84147526 116.06771452 -408.4765625 114.12890625 C-378.69344416 89.74942451 -345.31260134 70.22719448 -311 53 C-309.71512695 52.3505542 -309.71512695 52.3505542 -308.40429688 51.68798828 C-253.02691385 23.87312626 -190.23702693 8.1499079 -128.9934082 0.25714111 C-127.07246084 0.00934714 -125.15241877 -0.24543426 -123.23242188 -0.50048828 C-83.24399408 -5.58046853 -39.90314659 -5.80797488 0 0 Z M-99.07324219 68.63623047 C-101.92793744 68.99104328 -104.78533524 69.31113769 -107.64497375 69.62329102 C-169.26657448 76.36644257 -230.93191998 92.26103324 -286.10644531 121.01416016 C-288.10497681 122.05465399 -290.11097476 123.0798733 -292.1171875 124.10546875 C-319.64170158 138.29591309 -345.29434617 156.11339925 -369 176 C-370.00160156 176.82757813 -371.00320313 177.65515625 -372.03515625 178.5078125 C-384.46398705 188.82889688 -396.05853469 199.97760085 -407.5 211.375 C-408.33668213 212.20700928 -409.17336426 213.03901855 -410.03540039 213.89624023 C-414.89704282 218.77056479 -419.52414646 223.77118608 -424 229 C-424.92547337 230.04829854 -425.85247428 231.09525118 -426.78125 232.140625 C-459.35240838 269.19656304 -507.64899252 332.68562893 -504.8125 385.1875 C-502.51289666 420.25543334 -484.8131753 451.22092127 -459.15234375 474.59375 C-456.49259192 476.81869703 -453.77721429 478.9238677 -451 481 C-450.00355469 481.7734375 -449.00710938 482.546875 -447.98046875 483.34375 C-409.46715621 512.59798816 -359.33519389 524.70074121 -312 529 C-310.98325195 529.09498779 -309.96650391 529.18997559 -308.91894531 529.2878418 C-298.20264605 530.17717764 -287.49700118 530.19981382 -276.75 530.1875 C-275.28768951 530.18659363 -275.28768951 530.18659363 -273.7958374 530.18566895 C-258.43812499 530.15987511 -243.27243196 529.74576384 -228 528 C-226.31583984 527.8146167 -226.31583984 527.8146167 -224.59765625 527.62548828 C-159.5077972 520.27347107 -98.48342682 501.12337011 -39.83203125 472.33203125 C-35.55994295 470.23573719 -31.27363669 468.18526361 -26.94921875 466.19921875 C-5.36644199 456.2539806 14.68985289 443.81575568 34 430 C34.80695312 429.42362793 35.61390625 428.84725586 36.4453125 428.25341797 C46.04451019 421.36433859 55.34591139 414.27184983 64.23876953 406.49023438 C65.56698207 405.36639056 66.92180331 404.27388568 68.28857422 403.19726562 C76.10596013 397.00579193 83.13060289 390.17559062 90.15283203 383.10791016 C92.1218315 381.12818576 94.10130727 379.15939246 96.08203125 377.19140625 C103.18159334 370.09968652 109.81486864 362.9124663 116 355 C117.04723465 353.72104607 118.0976568 352.44469039 119.15234375 351.171875 C151.72947324 311.33893031 175.65645901 260.48497437 170.57421875 207.99609375 C167.04365562 178.18539901 153.439807 152.62573436 133 131 C132.26523437 130.20078125 131.53046875 129.4015625 130.7734375 128.578125 C109.03959267 105.75395351 78.66966982 91.33466805 49 82 C48.1759668 81.73735352 47.35193359 81.47470703 46.50292969 81.20410156 C12.49209661 70.50213192 -23.03620771 66.76978064 -58.5625 66.8125 C-59.49496552 66.81310425 -60.42743103 66.8137085 -61.38815308 66.81433105 C-74.02592651 66.83654036 -86.52066642 67.04281799 -99.07324219 68.63623047 Z " fill="#4BB651" transform="translate(576,3)"/>
<path d="M0 0 C1.24947418 -0.00701431 2.49894836 -0.01402863 3.7862854 -0.02125549 C7.79896988 -0.03867082 11.81150459 -0.04568966 15.82421875 -0.046875 C16.50769001 -0.04731686 17.19116127 -0.04775871 17.89534378 -0.04821396 C38.57815564 -0.055228 59.00306466 0.21805344 79.51171875 3.203125 C80.76210938 3.38004883 82.0125 3.55697266 83.30078125 3.73925781 C144.95059602 12.68095189 208.89069937 33.5560071 255.13671875 76.98046875 C257.21135689 78.92202977 259.3334332 80.75556753 261.51171875 82.578125 C297.02751833 113.69054292 317.50137142 162.05920362 321.33300781 208.42529297 C324.07982368 251.12101827 314.0760239 292.89707462 295.51171875 331.203125 C294.73434449 332.84894392 293.95700112 334.49477744 293.1796875 336.140625 C274.0700187 376.00896095 245.28356445 410.43713908 214.26171875 441.578125 C213.42189453 442.42262207 212.58207031 443.26711914 211.71679688 444.13720703 C206.80872746 449.03266678 201.78140629 453.70126218 196.51171875 458.203125 C195.42863947 459.15245147 194.34655928 460.10291937 193.265625 461.0546875 C185.03155634 468.23691698 176.51249613 474.96772165 167.76660156 481.51464844 C166.25042116 482.64997798 164.73678452 483.78871178 163.22558594 484.93066406 C147.73452398 496.63226337 131.6763058 507.39939511 114.90625 517.1875 C112.66280196 518.51962795 110.45001363 519.90495178 108.2734375 521.34375 C107.25894531 521.99859375 106.24445313 522.6534375 105.19921875 523.328125 C104.33683594 523.90820312 103.47445312 524.48828125 102.5859375 525.0859375 C97.99019792 526.75605379 94.2766631 525.97599979 89.51171875 525.203125 C88.21177979 524.99719727 86.91184082 524.79126953 85.57250977 524.57910156 C81.80975901 523.96999274 78.05335225 523.3276559 74.2980957 522.67407227 C71.95140917 522.26600589 69.60373603 521.86404646 67.25585938 521.46289062 C59.96735871 520.20946897 52.71054177 518.91006242 45.51171875 517.203125 C46.19049679 512.13278108 48.30814348 507.76077227 50.37109375 503.1328125 C50.75734924 502.25593781 51.14360474 501.37906311 51.54156494 500.47561646 C52.77692965 497.67435561 54.01928315 494.87625576 55.26171875 492.078125 C56.485106 489.3069163 57.7071757 486.53513099 58.92868042 483.76309204 C59.72013361 481.97578482 60.5170692 480.19089472 61.3196106 478.40853882 C62.91478731 474.86381891 64.45550997 471.35615559 65.79638672 467.70556641 C68.81219067 459.660202 73.71082912 456.78004097 81.13671875 452.828125 C83.40499409 451.54503867 85.67059894 450.25722063 87.93359375 448.96484375 C89.61098633 448.01810791 89.61098633 448.01810791 91.32226562 447.05224609 C99.03080839 442.58313228 106.27044435 437.38401136 113.51171875 432.203125 C114.31867188 431.62675293 115.125625 431.05038086 115.95703125 430.45654297 C125.55554861 423.56795185 134.85562092 416.47551727 143.74853516 408.6953125 C145.08362729 407.56542007 146.44498594 406.46647032 147.81787109 405.3828125 C155.46818895 399.31546459 162.36217147 392.65960399 169.23730469 385.73828125 C171.13387814 383.83098168 173.0409218 381.93462441 174.94921875 380.0390625 C181.92992006 373.06635793 188.4225619 365.97682133 194.51171875 358.203125 C195.55908783 356.92428116 196.60951489 355.64793084 197.6640625 354.375 C230.24119199 314.54205531 254.16817776 263.68809937 249.0859375 211.19921875 C245.55340899 181.37192916 231.9409091 155.85304025 211.51171875 134.203125 C210.85042969 133.47738281 210.18914062 132.75164062 209.5078125 132.00390625 C188.21110195 109.49485923 157.62137944 95.36160304 128.51171875 86.203125 C127.68768555 85.94047852 126.86365234 85.67783203 126.01464844 85.40722656 C92.00088723 74.70433554 56.47754748 70.97996632 20.94921875 71.015625 C19.55849655 71.01553436 19.55849655 71.01553436 18.13967896 71.01544189 C4.49504264 71.02810076 -8.94245711 71.4564112 -22.48828125 73.203125 C-24.88555204 73.49223333 -27.28335616 73.77643367 -29.68139648 74.05908203 C-31.74218618 74.30611676 -33.80091376 74.57019772 -35.859375 74.8359375 C-39.430349 75.19726318 -42.90188674 75.26791148 -46.48828125 75.203125 C-42.3118614 70.16572013 -37.93159948 65.62456129 -33.11328125 61.203125 C-32.44917236 60.58864502 -31.78506348 59.97416504 -31.10083008 59.34106445 C-27.25285045 55.79122423 -23.37399803 52.28312951 -19.40625 48.8671875 C-15.37963032 45.37362338 -11.44481378 41.77559595 -7.48828125 38.203125 C-13.75467521 33.51009669 -20.1387823 29.05449874 -26.67578125 24.75 C-27.3912915 24.27824341 -28.10680176 23.80648682 -28.84399414 23.32043457 C-31.81529384 21.36385801 -34.7884275 19.41019683 -37.76708984 17.46484375 C-39.96997558 16.02444057 -42.16697383 14.57540715 -44.36328125 13.125 C-45.03512451 12.68951843 -45.70696777 12.25403687 -46.39916992 11.80535889 C-49.72131177 9.60283923 -52.36441095 7.61115021 -54.48828125 4.203125 C-50.09281101 3.72059016 -45.69684345 3.24273422 -41.30078125 2.765625 C-40.07423828 2.63091797 -38.84769531 2.49621094 -37.58398438 2.35742188 C-36.36259766 2.22529297 -35.14121094 2.09316406 -33.8828125 1.95703125 C-32.77784424 1.83658447 -31.67287598 1.7161377 -30.53442383 1.59204102 C-20.34845 0.57961899 -10.23639498 0.03860238 0 0 Z " fill="#2A527B" transform="translate(496.48828125,-0.203125)"/>
<path d="M0 0 C0.76570313 0.63421875 1.53140625 1.2684375 2.3203125 1.921875 C3.25488281 2.6540625 4.18945312 3.38625 5.15234375 4.140625 C5.67006348 4.54667969 6.1877832 4.95273438 6.72119141 5.37109375 C10.04265726 7.87700851 13.53524022 10.13262675 17.0078125 12.421875 C18.54820214 13.44267052 20.08856628 14.46350452 21.62890625 15.484375 C22.41249512 16.00257812 23.19608398 16.52078125 24.00341797 17.0546875 C28.19924628 19.83344842 32.38414591 22.62858983 36.5703125 25.421875 C38.09370209 26.43757185 39.61713504 27.4532037 41.140625 28.46875 C42.23117187 29.19578125 43.32171875 29.9228125 44.4453125 30.671875 C41.06598798 34.7354191 37.68072912 38.55629199 33.6953125 42.046875 C32.83164062 42.81 31.96796875 43.573125 31.078125 44.359375 C30.20929688 45.1225 29.34046875 45.885625 28.4453125 46.671875 C26.81799522 48.12762209 25.19298285 49.58594993 23.5703125 51.046875 C22.75433594 51.7790625 21.93835938 52.51125 21.09765625 53.265625 C19.15967819 55.02379066 17.23674172 56.79271305 15.32421875 58.578125 C14.7936084 59.07135254 14.26299805 59.56458008 13.71630859 60.07275391 C12.68841862 61.02964562 11.66379695 61.99006472 10.64306641 62.95458984 C5.92911627 67.33514942 2.03763639 69.86082046 -4.3671875 70.8125 C-5.51002197 70.99208252 -6.65285645 71.17166504 -7.83032227 71.35668945 C-9.05936279 71.54320068 -10.28840332 71.72971191 -11.5546875 71.921875 C-61.22725406 80.00289251 -110.96325182 95.39260695 -155.66113281 118.68603516 C-157.65966431 119.72652899 -159.66566226 120.7517483 -161.671875 121.77734375 C-189.19638908 135.96778809 -214.84903367 153.78527425 -238.5546875 173.671875 C-239.55628906 174.49945313 -240.55789062 175.32703125 -241.58984375 176.1796875 C-253.83546121 186.34894777 -265.28039856 197.31846091 -276.5546875 208.546875 C-277.73828857 209.7234668 -277.73828857 209.7234668 -278.94580078 210.92382812 C-283.68784598 215.67898126 -288.18461169 220.57480201 -292.5546875 225.671875 C-293.48024435 226.72009983 -294.40724519 227.76705207 -295.3359375 228.8125 C-329.95721301 268.20083938 -358.04686878 314.99558543 -371.51171875 365.8515625 C-372.41859246 369.17336959 -373.42799168 372.41924181 -374.5546875 375.671875 C-377.02627787 373.44217177 -378.36829822 371.34432959 -379.76171875 368.33203125 C-380.17703857 367.44652588 -380.5923584 366.56102051 -381.02026367 365.64868164 C-381.68699097 364.20609985 -381.68699097 364.20609985 -382.3671875 362.734375 C-386.86056087 353.16551278 -391.49918163 343.68108049 -396.2421875 334.234375 C-396.71563095 333.29055466 -396.71563095 333.29055466 -397.19863892 332.32766724 C-398.98125461 328.77435834 -400.76662691 325.22244684 -402.5546875 321.671875 C-405.96298687 323.29004675 -408.34999508 325.14953464 -411.1171875 327.734375 C-414.67765678 331.00205973 -418.2940167 334.13666693 -422.0546875 337.171875 C-426.59902152 340.84724997 -430.96070422 344.67672982 -435.265625 348.62890625 C-442.03652306 354.671875 -442.03652306 354.671875 -444.5546875 354.671875 C-443.3659324 346.36812532 -441.55921757 338.48662382 -439.0546875 330.484375 C-438.70720459 329.36796631 -438.35972168 328.25155762 -438.00170898 327.10131836 C-421.63388286 275.70959263 -392.98360108 229.85155595 -358.5546875 188.671875 C-358.11962891 188.15044922 -357.68457031 187.62902344 -357.23632812 187.09179688 C-346.29948962 174.02620842 -334.63498801 161.68269719 -322.6171875 149.609375 C-321.93180908 148.91932373 -321.24643066 148.22927246 -320.5402832 147.51831055 C-316.61039499 143.60081495 -312.57135617 139.8706745 -308.36987305 136.24633789 C-306.00373312 134.19398599 -303.72033354 132.05784719 -301.4296875 129.921875 C-296.2218407 125.17312213 -290.77769147 120.81954308 -285.203125 116.51171875 C-282.78404982 114.64090701 -280.39616276 112.73958952 -278.03125 110.80078125 C-248.24813166 86.42129951 -214.86728884 66.89906948 -180.5546875 49.671875 C-179.26981445 49.0224292 -179.26981445 49.0224292 -177.95898438 48.35986328 C-128.46827003 23.50174764 -72.9190217 8.62133252 -18.4296875 -0.265625 C-17.72078369 -0.38212402 -17.01187988 -0.49862305 -16.28149414 -0.61865234 C-4.58359212 -2.38290722 -4.58359212 -2.38290722 0 0 Z " fill="#FBB64E" transform="translate(445.5546875,6.328125)"/>
<path d="M0 0 C12.54 0 25.08 0 38 0 C38.0093457 4.64304199 38.01869141 9.28608398 38.02832031 14.06982422 C38.06209942 29.41674671 38.11745337 44.7635355 38.18390274 60.11034966 C38.22366187 69.41438958 38.25607022 78.7183453 38.27099609 88.02246094 C38.28402884 96.13473962 38.31103483 104.2468328 38.35461307 112.359007 C38.37719148 116.65183642 38.39291286 120.94443733 38.39188385 125.23733139 C38.39113509 129.28399908 38.40917193 133.33016236 38.44116783 137.37669945 C38.44963562 138.85602833 38.45143809 140.33541401 38.44580269 141.81475639 C38.41481212 151.20627748 38.53948347 160.42511125 45.4375 167.5 C53.10094008 171.98591614 61.25842887 172.22590303 69.890625 170.3828125 C76.21926019 168.18914447 80.45227075 164.67070553 84 159 C87.49379882 151.4904629 89.10694951 144.16386414 89.15821838 135.88760376 C89.1680072 134.6845459 89.17779602 133.48148804 89.18788147 132.24197388 C89.19363693 130.93574066 89.1993924 129.62950745 89.20532227 128.28369141 C89.21491024 126.88380653 89.22492085 125.48392449 89.23532104 124.08404541 C89.26227666 120.29528357 89.28333659 116.5065094 89.30332303 112.71770525 C89.32524045 108.75386864 89.3526009 104.79006965 89.37937927 100.82626343 C89.42922851 93.32538199 89.47419606 85.82447958 89.51740164 78.32355726 C89.56684054 69.78183876 89.62173393 61.24015802 89.67708123 52.69847608 C89.79078197 35.13235093 89.89692681 17.56619094 90 0 C102.54 0 115.08 0 128 0 C128 64.68 128 129.36 128 196 C115.46 196 102.92 196 90 196 C89.67 191.71 89.34 187.42 89 183 C87.845 184.155 86.69 185.31 85.5 186.5 C76.14331987 194.78103028 64.5028228 200.16894088 52 201 C51.28199219 201.06832031 50.56398438 201.13664063 49.82421875 201.20703125 C36.8846462 201.86497562 23.82927683 198.25535004 13.7265625 190.18359375 C4.70413361 181.88228836 0.61274468 170.39560843 -0.26817894 158.32550812 C-0.3671636 154.13591287 -0.37205655 149.95674826 -0.34057617 145.76660156 C-0.33972809 144.16879289 -0.34020857 142.57098305 -0.34190369 140.97317505 C-0.34275801 136.67226521 -0.32522449 132.37161072 -0.30418181 128.07075977 C-0.28532015 123.56246578 -0.28365714 119.05416476 -0.28010559 114.5458374 C-0.27081283 106.02509937 -0.24623687 97.50447798 -0.21605712 88.98379111 C-0.18242649 79.27633796 -0.1660054 69.56887899 -0.15097082 59.86138201 C-0.11968458 39.90750861 -0.06470748 19.95379494 0 0 Z " fill="#4E4E4F" transform="translate(221,215)"/>
<path d="M0 0 C8.98253859 8.05670676 12.76577201 20.73592037 13.78125 32.41015625 C14.0796921 39.42165677 13.91889216 46.39040628 13.78125 53.41015625 C1.57125 53.41015625 -10.63875 53.41015625 -23.21875 53.41015625 C-23.30125 50.50203125 -23.38375 47.59390625 -23.46875 44.59765625 C-24.01992143 32.30005059 -24.01992143 32.30005059 -29.69921875 21.640625 C-35.93321983 16.64516718 -44.72092893 17.5993723 -52.21875 18.41015625 C-57.275604 19.61630957 -60.14149731 21.8596087 -63.09375 26.09765625 C-67.38209214 33.09994918 -67.51526974 41.64020616 -67.4934082 49.60473633 C-67.49851913 50.58163925 -67.50363007 51.55854218 -67.50889587 52.56504822 C-67.52270879 55.76999164 -67.52184118 58.97471798 -67.51953125 62.1796875 C-67.52342306 64.42494282 -67.52775872 66.6701974 -67.53251648 68.91545105 C-67.53996112 73.61333608 -67.53970039 78.31114594 -67.53442383 83.0090332 C-67.52863516 89.00395686 -67.54555446 94.99857096 -67.5687685 100.99344349 C-67.58356232 105.62881748 -67.5843698 110.26411792 -67.58125877 114.89951134 C-67.58176926 117.10851339 -67.58695539 119.31751985 -67.59707069 121.52649879 C-68.37230729 141.68053378 -68.37230729 141.68053378 -60.21875 159.41015625 C-53.30133998 164.42527852 -45.4819057 164.06713727 -37.21875 163.41015625 C-31.25336464 161.79164084 -27.63807524 158.43857571 -24.21875 153.41015625 C-22.49570617 149.05947059 -21.87175764 145.13185829 -21.59375 140.47265625 C-21.48160156 138.72662109 -21.48160156 138.72662109 -21.3671875 136.9453125 C-21.21984931 133.43633712 -21.21875 129.92222356 -21.21875 126.41015625 C-9.00875 126.41015625 3.20125 126.41015625 15.78125 126.41015625 C18.20149289 143.35185647 16.06411706 160.82019832 6.51171875 175.33984375 C-2.03477201 186.42318912 -15.86181443 190.92940285 -29.21875 192.66015625 C-49.44376759 194.9473111 -71.70093918 193.44917696 -88.21875 180.41015625 C-100.10258354 169.48109224 -105.55479638 153.30339214 -106.3164444 137.36590004 C-106.3619211 135.07265619 -106.37669246 132.7812421 -106.37988281 130.48754883 C-106.38484772 129.62132401 -106.38981262 128.75509918 -106.39492798 127.86262512 C-106.40947203 125.00997095 -106.41634254 122.15737259 -106.421875 119.3046875 C-106.42470238 118.32107428 -106.42752975 117.33746105 -106.43044281 116.32404137 C-106.44541245 111.1073823 -106.45465299 105.89075067 -106.45898438 100.67407227 C-106.46443187 95.3412779 -106.48838689 90.00874367 -106.51695633 84.67603016 C-106.53579235 80.52930528 -106.54079954 76.38264008 -106.54232025 72.23587608 C-106.54530589 70.27351159 -106.55319178 68.31114706 -106.56650543 66.34882545 C-106.70678544 44.06198265 -105.83426072 19.86450282 -90.21875 2.41015625 C-68.69915918 -18.70509988 -23.2905075 -16.68879675 0 0 Z " fill="#4E4E4F" transform="translate(483.21875,222.58984375)"/>
<path d="M0 0 C12.21 0 24.42 0 37 0 C37 64.68 37 129.36 37 196 C24.79 196 12.58 196 0 196 C0 131.32 0 66.64 0 0 Z " fill="#4E4E4F" transform="translate(525,215)"/>
<path d="M0 0 C1.4530957 -0.04350586 1.4530957 -0.04350586 2.93554688 -0.08789062 C9.24689359 -0.14336561 14.11225909 0.55151602 19.3125 4.3125 C22.2636051 7.68817447 23.19778418 11.49514979 23.8125 15.875 C23.04087347 21.17993237 21.22089217 24.88120587 16.8125 28.1875 C11.42207097 30.61319306 6.32475817 30.5287088 0.5 30.5625 C-0.81581055 30.5934375 -0.81581055 30.5934375 -2.15820312 30.625 C-8.43940132 30.66258383 -13.48681426 30.06824736 -18.4296875 25.8125 C-22.16507474 20.86633207 -23.21376492 17.52242608 -22.6875 11.3125 C-17.28640877 1.11043879 -10.55292233 0.10325756 0 0 Z M-10.6875 10.3125 C-12.22210375 13.38170751 -12.99434399 15.20786165 -12.0625 18.5625 C-10.36908173 20.71775962 -9.25385203 21.32347397 -6.6875 22.3125 C-3.31622817 22.6295972 -3.31622817 22.6295972 0.3125 22.5625 C1.529375 22.56765625 2.74625 22.5728125 4 22.578125 C7.09000006 22.33034198 8.76912356 22.01009805 11.3125 20.3125 C13.02234574 17.95128446 13.32129588 16.67313104 13.25 13.75 C11.96748676 10.41546557 10.50310437 9.84434023 7.3125 8.3125 C4.13200324 7.87744762 4.13200324 7.87744762 0.8125 8 C-0.2909375 8.00386719 -1.394375 8.00773438 -2.53125 8.01171875 C-5.68392769 8.31215957 -7.89690684 8.82984138 -10.6875 10.3125 Z " fill="#4E4F50" transform="translate(542.6875,173.6875)"/>
</svg>
