<?xml version="1.0" standalone="no"?>
<!DOCTYPE svg PUBLIC "-//W3C//DTD SVG 20010904//EN"
 "http://www.w3.org/TR/2001/REC-SVG-20010904/DTD/svg10.dtd">
<svg version="1.0" xmlns="http://www.w3.org/2000/svg"
 width="200.000000pt" height="200.000000pt" viewBox="0 0 200.000000 200.000000"
 preserveAspectRatio="xMidYMid meet">

<g transform="translate(0.000000,200.000000) scale(0.100000,-0.100000)"
fill="#000000" stroke="none">
<path d="M980 1420 c0 -5 6 -10 13 -10 6 0 23 -9 37 -20 l25 -20 -27 -25 c-16
-13 -28 -25 -28 -27 0 -2 53 -3 118 -4 138 0 215 -22 294 -81 62 -48 89 -94
95 -163 10 -117 -84 -260 -241 -365 -64 -42 -89 -66 -105 -97 -11 -23 -19 -44
-16 -46 2 -2 25 -5 52 -5 42 -2 57 4 120 46 138 92 249 225 290 347 15 46 16
168 1 211 -57 164 -263 269 -528 269 -60 0 -100 -4 -100 -10z"/>
<path d="M1114 1125 c-4 -9 -4 -19 0 -22 3 -4 6 1 6 10 0 22 47 23 53 2 4 -11
4 -10 3 2 -2 24 -54 31 -62 8z"/>
<path d="M922 1069 c-50 -15 -65 -59 -60 -182 3 -94 4 -100 31 -123 52 -45
150 -28 165 28 11 41 7 48 -24 48 -16 0 -24 -6 -24 -18 0 -24 -19 -42 -45 -42
-39 0 -45 19 -45 132 0 106 1 109 25 120 21 9 28 8 45 -7 11 -10 20 -26 20
-37 0 -13 7 -18 25 -18 20 0 25 5 25 26 0 40 -17 62 -58 74 -20 5 -39 10 -42
9 -3 0 -20 -5 -38 -10z"/>
<path d="M590 925 c0 -132 2 -147 20 -165 23 -23 64 -26 102 -6 16 9 30 11 33
5 4 -5 17 -9 31 -9 l24 0 0 161 0 160 -27 -3 -28 -3 -3 -129 c-1 -75 -7 -135
-14 -143 -16 -20 -66 -16 -78 6 -5 11 -10 76 -10 145 l0 126 -25 0 -25 0 0
-145z"/>
<path d="M1117 1063 c-4 -3 -7 -75 -7 -160 l0 -153 35 0 35 0 0 160 0 160 -28
0 c-16 0 -32 -3 -35 -7z"/>
</g>
</svg>
